<svg xmlns="http://www.w3.org/2000/svg" viewBox="0 0 328 130" width="328" height="130">
  <path d="M 50.00 45.00 L 47.00 50.00 L 44.00 56.00 L 44.00 59.00 L 46.00 63.00 L 53.00 79.00 L 47.00 81.00 L 37.00 82.00 L 33.00 82.00 L 29.00 81.00 L 27.00 80.00 L 26.00 79.00 L 25.00 77.00 L 24.00 73.00 L 22.00 73.00 L 21.00 75.00 L 21.00 92.00 L 23.00 96.00 L 26.00 98.00 L 38.00 98.00 L 42.00 97.00 L 47.00 95.00 L 49.00 94.00 L 50.00 93.00 L 51.00 91.00 L 52.00 85.00 L 54.00 83.00 L 55.00 85.00 L 56.00 86.00 L 56.00 88.00 L 57.00 90.00 L 58.00 92.00 L 61.00 96.00 L 64.00 98.00 L 75.00 98.00 L 78.00 97.00 L 80.00 96.00 L 82.00 90.00 L 83.00 89.00 L 84.00 87.00 L 86.00 89.00 L 88.00 94.00 L 90.00 96.00 L 92.00 97.00 L 94.00 98.00 L 106.00 98.00 L 108.00 97.00 L 110.00 96.00 L 111.00 95.00 L 111.00 94.00 L 113.00 93.00 L 115.00 94.00 L 117.00 96.00 L 119.00 97.00 L 122.00 98.00 L 133.00 98.00 L 136.00 97.00 L 143.00 91.00 L 148.00 93.00 L 163.00 96.00 L 164.00 97.00 L 167.00 96.00 L 167.00 93.00 L 170.00 86.00 L 172.00 79.00 L 173.00 74.00 L 173.00 68.00 L 172.00 64.00 L 169.00 58.00 L 167.00 55.00 L 164.00 56.00 L 163.00 58.00 L 162.00 60.00 L 161.00 65.00 L 159.00 68.00 L 159.00 70.00 L 166.00 77.00 L 167.00 82.00 L 162.00 81.00 L 153.00 79.00 L 148.00 77.00 L 148.00 74.00 L 149.00 70.00 L 150.00 69.00 L 150.00 67.00 L 147.00 67.00 L 146.00 69.00 L 146.00 72.00 L 144.00 76.00 L 143.00 80.00 L 141.00 81.00 L 138.00 82.00 L 129.00 82.00 L 125.00 81.00 L 122.00 80.00 L 120.00 77.00 L 122.00 75.00 L 124.00 70.00 L 121.00 69.00 L 119.00 72.00 L 118.00 75.00 L 116.00 78.00 L 113.00 81.00 L 104.00 82.00 L 96.00 81.00 L 93.00 78.00 L 93.00 57.00 L 91.00 57.00 L 87.00 61.00 L 84.00 65.00 L 83.00 67.00 L 84.00 76.00 L 83.00 81.00 L 74.00 82.00 L 67.00 81.00 L 64.00 78.00 L 63.00 76.00 L 62.00 74.00 L 60.00 68.00 L 53.00 47.00 L 53.00 45.00 Z M 84.00 29.00 L 76.00 37.00 L 76.00 39.00 L 84.00 47.00 L 86.00 47.00 L 94.00 39.00 L 94.00 37.00 L 86.00 29.00 Z M 269.00 23.00 L 268.00 47.00 L 261.00 39.00 L 258.00 37.00 L 252.00 34.00 L 248.00 33.00 L 244.00 33.00 L 245.00 37.00 L 248.00 38.00 L 251.00 38.00 L 253.00 39.00 L 255.00 40.00 L 258.00 42.00 L 262.00 46.00 L 262.00 47.00 L 265.00 50.00 L 263.00 51.00 L 261.00 50.00 L 258.00 48.00 L 254.00 47.00 L 242.00 47.00 L 239.00 48.00 L 235.00 50.00 L 236.00 53.00 L 240.00 53.00 L 243.00 51.00 L 252.00 51.00 L 255.00 52.00 L 258.00 53.00 L 264.00 56.00 L 267.00 59.00 L 268.00 61.00 L 269.00 63.00 L 270.00 110.00 L 273.00 110.00 L 274.00 108.00 L 274.00 63.00 L 275.00 61.00 L 276.00 59.00 L 279.00 56.00 L 285.00 53.00 L 288.00 52.00 L 291.00 51.00 L 300.00 51.00 L 303.00 53.00 L 308.00 52.00 L 307.00 49.00 L 304.00 48.00 L 301.00 47.00 L 289.00 47.00 L 285.00 48.00 L 278.00 50.00 L 281.00 47.00 L 281.00 46.00 L 286.00 41.00 L 292.00 38.00 L 295.00 38.00 L 299.00 36.00 L 299.00 33.00 L 295.00 33.00 L 291.00 34.00 L 285.00 37.00 L 282.00 39.00 L 275.00 47.00 L 274.00 23.00 L 272.00 21.00 Z" fill="#000000" fill-rule="evenodd"/>
</svg>
